<?xml version="1.0" encoding="UTF-8" standalone="no"?>
<!-- Created with Inkscape (http://www.inkscape.org/) -->

<svg
   xmlns:dc="http://purl.org/dc/elements/1.1/"
   xmlns:cc="http://creativecommons.org/ns#"
   xmlns:rdf="http://www.w3.org/1999/02/22-rdf-syntax-ns#"
   xmlns:svg="http://www.w3.org/2000/svg"
   xmlns="http://www.w3.org/2000/svg"
   xmlns:sodipodi="http://sodipodi.sourceforge.net/DTD/sodipodi-0.dtd"
   xmlns:inkscape="http://www.inkscape.org/namespaces/inkscape"
   width="200"
   height="200"
   id="svg3864"
   version="1.1"
   inkscape:version="0.48.1 r9760"
   sodipodi:docname="dashboard.svg">
  <defs
     id="defs3866" />
  <sodipodi:namedview
     id="base"
     pagecolor="#ffffff"
     bordercolor="#666666"
     borderopacity="1.0"
     inkscape:pageopacity="0.0"
     inkscape:pageshadow="2"
     inkscape:zoom="3.959798"
     inkscape:cx="84.66067"
     inkscape:cy="91.403414"
     inkscape:document-units="px"
     inkscape:current-layer="layer1"
     showgrid="false"
     fit-margin-top="0"
     fit-margin-left="0"
     fit-margin-right="0"
     fit-margin-bottom="0"
     inkscape:window-width="1920"
     inkscape:window-height="1141"
     inkscape:window-x="0"
     inkscape:window-y="26"
     inkscape:window-maximized="1" />
  <metadata
     id="metadata3869">
    <rdf:RDF>
      <cc:Work
         rdf:about="">
        <dc:format>image/svg+xml</dc:format>
        <dc:type
           rdf:resource="http://purl.org/dc/dcmitype/StillImage" />
        <dc:title />
      </cc:Work>
    </rdf:RDF>
  </metadata>
  <g
     inkscape:label="Layer 1"
     inkscape:groupmode="layer"
     id="layer1"
     transform="translate(-128.57143,-369.50499)">
    <path
       sodipodi:type="arc"
       style="fill:#ff6600;fill-rule:evenodd;stroke:none"
       id="path2999"
       sodipodi:cx="100"
       sodipodi:cy="108.57143"
       sodipodi:rx="62.857143"
       sodipodi:ry="62.857143"
       d="m 162.85714,108.57143 a 62.857143,62.857143 0 1 1 -125.714283,0 62.857143,62.857143 0 1 1 125.714283,0 z"
       transform="matrix(0.07744619,-0.02075164,0.02075164,0.07744619,218.57375,463.17163)" />
    <g
       id="g3033"
       transform="matrix(0.81844164,0,0,1.0079545,193.35896,-620.64696)"
       inkscape:transform-center-x="-47.809785"
       inkscape:transform-center-y="10.961887"
       style="stroke:#ff6600;stroke-width:2.21950746;stroke-miterlimit:4;stroke-dasharray:none">
      <path
         id="path3031"
         style="fill:none;stroke:#ff6600;stroke-width:2.21950746;stroke-linecap:butt;stroke-linejoin:miter;stroke-miterlimit:4;stroke-opacity:1;stroke-dasharray:none"
         d="m 164.17368,1081.9092 -121.071434,0 -10e-7,-3.7881 m 102.445055,0 0,3.7881 m 9.31319,-3.7881 0,3.7881 m -18.62637,-3.7881 0,3.7881 m -9.31319,-3.7881 0,3.7881 m -9.31319,-3.7881 0,3.7881 m -9.31318,-3.7881 0,3.7881 m -9.31319,-3.7881 0,3.7881 m -9.313187,-3.7881 0,3.7881 m -9.313186,-3.7881 0,3.7881 m -9.313191,-3.7881 0,3.7881 m -9.313186,-3.7881 0,3.7881 m -9.313187,-3.7881 0,3.7881"
         inkscape:connector-curvature="0"
         sodipodi:nodetypes="ccccccccccccccccccccccccccc" />
    </g>
  </g>
</svg>
