<?xml version="1.0" encoding="UTF-8" standalone="no"?>
<!-- Created with Inkscape (http://www.inkscape.org/) -->

<svg
   xmlns:dc="http://purl.org/dc/elements/1.1/"
   xmlns:cc="http://creativecommons.org/ns#"
   xmlns:rdf="http://www.w3.org/1999/02/22-rdf-syntax-ns#"
   xmlns:svg="http://www.w3.org/2000/svg"
   xmlns="http://www.w3.org/2000/svg"
   xmlns:sodipodi="http://sodipodi.sourceforge.net/DTD/sodipodi-0.dtd"
   xmlns:inkscape="http://www.inkscape.org/namespaces/inkscape"
   width="200"
   height="200"
   id="svg3864"
   version="1.1"
   inkscape:version="0.48.1 r9760"
   sodipodi:docname="dashboard_back.svg">
  <defs
     id="defs3866" />
  <sodipodi:namedview
     id="base"
     pagecolor="#ffffff"
     bordercolor="#666666"
     borderopacity="1.0"
     inkscape:pageopacity="0.0"
     inkscape:pageshadow="2"
     inkscape:zoom="1.979899"
     inkscape:cx="-103.70478"
     inkscape:cy="127.89655"
     inkscape:document-units="px"
     inkscape:current-layer="layer1"
     showgrid="false"
     fit-margin-top="0"
     fit-margin-left="0"
     fit-margin-right="0"
     fit-margin-bottom="0"
     inkscape:window-width="1920"
     inkscape:window-height="1141"
     inkscape:window-x="0"
     inkscape:window-y="26"
     inkscape:window-maximized="1" />
  <metadata
     id="metadata3869">
    <rdf:RDF>
      <cc:Work
         rdf:about="">
        <dc:format>image/svg+xml</dc:format>
        <dc:type
           rdf:resource="http://purl.org/dc/dcmitype/StillImage" />
        <dc:title />
      </cc:Work>
    </rdf:RDF>
  </metadata>
  <g
     inkscape:label="Layer 1"
     inkscape:groupmode="layer"
     id="layer1"
     transform="translate(-128.57143,-369.50499)">
    <path
       sodipodi:type="arc"
       style="fill:#ffffff;fill-rule:evenodd;stroke:none"
       id="path2995"
       sodipodi:cx="100"
       sodipodi:cy="108.57143"
       sodipodi:rx="62.857143"
       sodipodi:ry="62.857143"
       d="m 162.85714,108.57143 c 0,34.71504 -28.1421,62.85714 -62.85714,62.85714 -34.715042,0 -62.857143,-28.1421 -62.857143,-62.85714 0,-34.715045 28.142101,-62.857147 62.857143,-62.857147 34.71504,0 62.85714,28.142102 62.85714,62.857147 z"
       transform="matrix(1.5367001,-0.41175755,0.41175755,1.5367001,30.19631,343.83902)" />
    <path
       inkscape:connector-curvature="0"
       style="fill:#ff6600;fill-rule:evenodd;stroke:none"
       d="m 227.63393,369.47912 c -8.2477,0.0823 -16.6021,1.20404 -24.9375,3.4375 -53.34661,14.29418 -85.01294,69.12214 -70.71875,122.46875 14.29418,53.34661 69.12214,85.01293 122.46875,70.71875 53.34661,-14.29418 85.01293,-69.12214 70.71875,-122.46875 -12.06071,-45.0112 -52.99367,-74.60042 -97.53125,-74.15625 z m 0.0313,1.75 c 43.76956,-0.43651 83.99101,28.60874 95.84375,72.84375 14.04769,52.42668 -17.07332,106.32731 -69.5,120.375 -52.42669,14.04769 -106.32732,-17.07332 -120.375,-69.5 -14.04769,-52.42668 17.07331,-106.32731 69.5,-120.375 8.19166,-2.19495 16.42577,-3.26291 24.53125,-3.34375 z"
       id="path2995-2" />
  </g>
</svg>
